HIERARCHY
ROOT Hips
{
	OFFSET 0.00000 0.00000 0.00000
	CHANNELS 6 Xposition Yposition Zposition Zrotation Yrotation Xrotation 
	JOINT LHipJoint
	{
		OFFSET 0 0 0
		CHANNELS 3 Zrotation Yrotation Xrotation
		JOINT LeftUpLeg
		{
			OFFSET 1.62964 -1.40469 0.78906
			CHANNELS 3 Zrotation Yrotation Xrotation
			JOINT LeftLeg
			{
				OFFSET 2.29640 -6.30932 0.00000
				CHANNELS 3 Zrotation Yrotation Xrotation
				JOINT LeftFoot
				{
					OFFSET 2.29451 -6.30412 0.00000
					CHANNELS 3 Zrotation Yrotation Xrotation
					JOINT LeftToeBase
					{
						OFFSET 0.03611 -0.09921 1.56387
						CHANNELS 3 Zrotation Yrotation Xrotation
						End Site
						{
							OFFSET 0.00000 -0.00000 0.80291
						}
					}
				}
			}
		}
	}
	JOINT RHipJoint
	{
		OFFSET 0 0 0
		CHANNELS 3 Zrotation Yrotation Xrotation
		JOINT RightUpLeg
		{
			OFFSET -1.73712 -1.40469 0.78906
			CHANNELS 3 Zrotation Yrotation Xrotation
			JOINT RightLeg
			{
				OFFSET -2.28137 -6.26801 0.00000
				CHANNELS 3 Zrotation Yrotation Xrotation
				JOINT RightFoot
				{
					OFFSET -2.28681 -6.28298 0.00000
					CHANNELS 3 Zrotation Yrotation Xrotation
					JOINT RightToeBase
					{
						OFFSET -0.15927 -0.43759 1.61103
						CHANNELS 3 Zrotation Yrotation Xrotation
						End Site
						{
							OFFSET -0.00000 -0.00000 0.84630
						}
					}
				}
			}
		}
	}
	JOINT LowerBack
	{
		OFFSET 0 0 0
		CHANNELS 3 Zrotation Yrotation Xrotation
		JOINT Spine
		{
			OFFSET -0.04227 2.04338 -0.00225
			CHANNELS 3 Zrotation Yrotation Xrotation
			JOINT Spine1
			{
				OFFSET -0.02148 2.04482 -0.04273
				CHANNELS 3 Zrotation Yrotation Xrotation
				JOINT Neck
				{
					OFFSET 0 0 0
					CHANNELS 3 Zrotation Yrotation Xrotation
					JOINT Neck1
					{
						OFFSET 0.09180 1.44629 0.19359
						CHANNELS 3 Zrotation Yrotation Xrotation
						JOINT Head
						{
							OFFSET 0.00887 1.40645 0.14750
							CHANNELS 3 Zrotation Yrotation Xrotation
							End Site
							{
								OFFSET -0.00669 1.50671 0.03707
							}
						}
					}
				}
				JOINT LeftShoulder
				{
					OFFSET 0 0 0
					CHANNELS 3 Zrotation Yrotation Xrotation
					JOINT LeftArm
					{
						OFFSET 2.17674 1.86763 -0.06520
						CHANNELS 3 Zrotation Yrotation Xrotation
						JOINT LeftForeArm
						{
							OFFSET 4.65776 -0.00000 0.00000
							CHANNELS 3 Zrotation Yrotation Xrotation
							JOINT LeftHand
							{
								OFFSET 3.55539 -0.00000 0.00000
								CHANNELS 3 Zrotation Yrotation Xrotation
								JOINT LeftFingerBase
								{
									OFFSET 0 0 0
									CHANNELS 3 Zrotation Yrotation Xrotation
									JOINT LeftHandIndex1
									{
										OFFSET 0.70726 -0.00000 0.00000
										CHANNELS 3 Zrotation Yrotation Xrotation
										End Site
										{
											OFFSET 0.57022 -0.00000 0.00000
										}
									}
								}
								JOINT LThumb
								{
									OFFSET 0 0 0
									CHANNELS 3 Zrotation Yrotation Xrotation
									End Site
									{
										OFFSET 0.57892 -0.00000 0.57892
									}
								}
							}
						}
					}
				}
				JOINT RightShoulder
				{
					OFFSET 0 0 0
					CHANNELS 3 Zrotation Yrotation Xrotation
					JOINT RightArm
					{
						OFFSET -2.80694 1.55459 -0.32496
						CHANNELS 3 Zrotation Yrotation Xrotation
						JOINT RightForeArm
						{
							OFFSET -4.71925 -0.00000 -0.00000
							CHANNELS 3 Zrotation Yrotation Xrotation
							JOINT RightHand
							{
								OFFSET -3.56990 -0.00000 0.00000
								CHANNELS 3 Zrotation Yrotation Xrotation
								JOINT RightFingerBase
								{
									OFFSET 0 0 0
									CHANNELS 3 Zrotation Yrotation Xrotation
									JOINT RightHandIndex1
									{
										OFFSET -0.50776 -0.00000 0.00000
										CHANNELS 3 Zrotation Yrotation Xrotation
										End Site
										{
											OFFSET -0.40937 -0.00000 0.00000
										}
									}
								}
								JOINT RThumb
								{
									OFFSET 0 0 0
									CHANNELS 3 Zrotation Yrotation Xrotation
									End Site
									{
										OFFSET -0.41562 -0.00000 0.41562
									}
								}
							}
						}
					}
				}
			}
		}
	}
}
MOTION
Frames: 6
Frame Time: .0083333
-1.6172 16.2472 20.6198 185.0280 -0.3571 -165.8220 0.0000 0.0000 0.0000 -18.5279 -14.2517 -9.3107 0.9537 6.2189 17.4207 0.7813 -0.7043 -16.4799 1.6122 -8.0066 -22.7342 0.0000 0.0000 0.0000 13.4850 11.9125 -76.5996 -14.7200 -19.3180 74.3917 -1.5978 6.1716 -22.6935 -2.2636 9.3949 -27.0385 -8.0450 -3.3525 -20.1589 0.7378 -2.5025 2.2850 4.6290 -1.8104 14.4461 -0.6816 -5.7010 -0.7292 6.1740 -7.6322 16.6223 1.6964 -2.9759 5.3881 0.0000 0.0000 0.0000 -81.4422 2.7766 20.4920 13.3994 -21.8697 -2.6002 -0.0000 -0.0000 3.1291 22.6147 -12.7241 -5.2422 -7.1250 0.0000 -0.0000 -3.2245 16.2489 2.1970 0.0000 0.0000 0.0000 91.8777 -11.8869 10.6364 -19.7486 30.3383 -5.4038 0.0000 -0.0000 -3.3057 -12.0114 -53.1659 9.6642 7.1250 -0.0000 -0.0000 -13.2561 8.4342 -168.5114
-1.6129 16.2428 20.5897 185.5320 -0.6693 -166.0860 0.0000 0.0000 0.0000 -17.9828 -14.2630 -8.9983 0.9716 6.2754 17.5857 0.8017 -0.9501 -16.6243 1.4312 -7.5642 -21.3982 0.0000 0.0000 0.0000 13.3256 11.8011 -76.2875 -14.1291 -19.1527 72.5984 -1.5340 5.6609 -22.2586 -2.4998 9.8375 -28.4521 -7.7276 -3.3156 -20.2046 0.8738 -2.5540 2.3846 4.5837 -1.8273 14.5881 -0.6061 -6.1129 0.0188 6.3515 -8.1938 15.6941 1.7357 -3.2965 4.9998 -0.0000 -0.0000 0.0000 -81.3869 2.6828 20.6621 13.4387 -21.9266 -2.6148 -0.0000 -0.0000 3.0179 22.8715 -12.2486 -5.1139 -7.1250 0.0000 -0.0000 -3.0243 16.7335 2.0283 -0.0000 -0.0000 0.0000 91.8894 -11.8728 10.4627 -19.6247 30.1876 -5.3414 0.0000 -0.0000 -3.1617 -11.7936 -53.4858 9.5260 7.1250 -0.0000 -0.0000 -13.3693 8.1875 -168.3405
-1.6077 16.2401 20.5522 185.5870 -0.9124 -166.2690 0.0000 0.0000 0.0000 -17.9764 -14.3244 -8.6914 0.9835 6.3125 17.6940 0.8208 -1.1566 -16.7671 1.3398 -7.3289 -20.6936 0.0000 0.0000 0.0000 12.5893 11.6250 -76.1249 -13.6244 -18.9961 71.0541 -1.5306 5.2488 -22.2724 -2.5977 10.0135 -29.0204 -7.7974 -3.3010 -20.3179 0.8244 -2.5877 2.4297 4.5425 -1.8873 14.7110 -0.8372 -5.5868 -0.9586 6.2630 -7.4610 17.3597 1.7525 -2.8415 5.6597 -0.0000 0.0000 0.0000 -81.2844 2.6924 20.6860 13.5022 -22.0187 -2.6386 -0.0000 -0.0000 2.9665 23.1416 -12.0582 -5.1021 -7.1250 0.0000 -0.0000 -2.8275 16.9114 1.8850 -0.0000 0.0000 0.0000 92.0155 -11.8774 10.3186 -19.5095 30.0469 -5.2835 0.0000 -0.0000 -2.9535 -11.8920 -53.7910 9.6434 7.1250 -0.0000 -0.0000 -13.3541 7.8820 -168.2717
-1.5977 16.2362 20.5140 185.8370 -1.1652 -166.4800 0.0000 0.0000 0.0000 -17.6998 -14.3250 -8.4552 1.0117 6.3998 17.9490 0.8457 -1.3014 -16.9858 1.4039 -7.4950 -21.1904 0.0000 0.0000 0.0000 12.1029 11.5266 -75.8192 -13.0855 -18.8128 69.3910 -1.5422 4.7716 -22.4138 -2.7378 10.2581 -29.8165 -7.6549 -3.3177 -20.3940 0.8046 -2.6339 2.4789 4.4198 -1.8990 14.8124 -0.6687 -5.7542 -0.7692 6.2883 -7.6951 17.1376 1.7254 -2.9564 5.5620 0.0000 0.0000 0.0000 -81.1815 2.6986 20.4501 13.5507 -22.0888 -2.6568 -0.0000 -0.0000 3.0442 22.9516 -11.7514 -4.9294 -7.1250 0.0000 -0.0000 -2.9459 17.2603 1.9418 0.0000 0.0000 0.0000 92.2222 -11.9033 10.1127 -19.4602 29.9865 -5.2589 0.0000 -0.0000 -2.7437 -11.8792 -54.5182 9.7199 7.1250 -0.0000 -0.0000 -13.4197 7.2104 -168.0292
-1.5851 16.2348 20.4805 186.1370 -1.4073 -166.5560 0.0000 0.0000 0.0000 -17.2836 -14.3428 -8.4655 1.0518 6.5214 18.3050 0.8697 -1.5574 -17.1656 1.3813 -7.4369 -21.0164 0.0000 0.0000 0.0000 11.5867 11.5441 -75.5172 -12.4653 -18.5805 67.4563 -1.5153 4.5003 -22.2448 -2.5792 9.9804 -28.9134 -7.7285 -3.3387 -20.1571 0.9713 -2.7009 2.2213 4.6415 -1.9271 14.3875 -0.7200 -5.8460 -0.4810 6.2696 -7.7821 17.2653 1.7320 -2.9906 5.5575 -0.0000 0.0000 0.0000 -81.2878 3.0941 20.3407 13.5678 -22.1135 -2.6632 -0.0000 -0.0000 3.3084 22.7803 -12.2234 -5.0811 -7.1250 0.0000 -0.0000 -3.0865 16.7695 2.0677 -0.0000 0.0000 0.0000 92.1504 -12.3477 9.8368 -19.3785 29.8862 -5.2181 0.0000 -0.0000 -2.6559 -11.7571 -54.7351 9.6445 7.1250 -0.0000 -0.0000 -13.4851 7.0377 -167.9206
-1.5773 16.2326 20.4453 186.2360 -1.7276 -166.6860 0.0000 0.0000 0.0000 -17.1694 -14.5043 -8.3069 1.0841 6.6175 18.5870 0.8922 -1.8434 -17.3222 1.2816 -7.1742 -20.2325 0.0000 0.0000 0.0000 10.8772 11.2643 -75.1807 -11.8303 -18.3180 65.4500 -1.4537 4.3639 -21.7878 -2.1580 9.1878 -26.3845 -7.8579 -3.4168 -20.0489 1.0042 -2.7944 2.1047 4.7264 -1.9744 14.2090 -0.7794 -5.7987 -0.3567 6.4332 -7.7121 17.4000 1.8010 -2.9340 5.5841 -0.0000 0.0000 0.0000 -81.2232 3.3533 20.4299 13.6177 -22.1856 -2.6821 -0.0000 -0.0000 3.2824 22.6587 -12.1414 -5.0178 -7.1250 0.0000 -0.0000 -3.1673 16.8696 2.1152 -0.0000 0.0000 0.0000 92.1107 -12.5210 9.7243 -19.2280 29.7010 -5.1433 0.0000 -0.0000 -2.6460 -11.7124 -53.8148 9.4991 7.1250 -0.0000 -0.0000 -13.4277 7.9010 -168.2085
